<svg xmlns="http://www.w3.org/2000/svg" width="11in" height="11in" viewBox="0 0 792 792">
  <g>
    <path d="M478.525,79.434c5.694,1.6,10.863,4,14.605,8.877,4.211,5.484,5.359,11.822,5.363,18.472q.036,67.259.013,134.516c0,13.078.037,26.156-.031,39.233a45.705,45.705,0,0,1-.676,8.047c-2.31,12.5-12.674,20.519-25.8,20.117-13.679-.418-23.334-8.926-24.819-21.943a66.148,66.148,0,0,1-.448-7.443q-.039-71.928-.02-143.856c0-4.793-.006-4.8-4.749-4.8q-147.437,0-294.874,0c-4.717,0-4.72,0-4.72,4.774q0,249.258,0,498.516c0,4.623,0,4.628,4.547,4.628q147.593,0,295.186,0c4.6,0,4.609-.006,4.61-4.618q0-72.863.013-145.725c0-8.027,1.607-15.6,7.988-21.148,8.309-7.229,17.965-8.253,28.012-4.7,9.434,3.341,14.26,10.6,15.356,20.426a53.283,53.283,0,0,1,.409,5.889q.033,86.718.011,173.437c0,5.445-.7,10.747-3.341,15.654-3.61,6.712-9.552,10.138-16.633,12.017H110.431Q95.09,685.844,91.123,670.5V98.742q3.943-15.365,19.308-19.308Z" fill="#fff"/>
    <path d="M614.078,410.349H609.29q-156.141,0-312.282-.006a38.314,38.314,0,0,1-8.364-.542c-10.372-2.289-17.008-8.466-19.072-18.919-1.576-7.983-.771-15.772,4.351-22.528,4.627-6.1,11.056-8.879,18.549-9.4,1.859-.13,3.734-.052,5.6-.052q155.675,0,311.348,0h4.035c-.325-1.611-1.393-2.19-2.162-2.96q-27.389-27.431-54.8-54.841c-6.9-6.932-9.629-15.316-6.87-24.81,2.82-9.7,9.421-16.076,19.306-18.418,8.186-1.94,15.656.094,22,5.71,2.4,2.13,4.62,4.476,6.895,6.751q44.369,44.355,88.722,88.724a36.436,36.436,0,0,0,5.2,4.43c13.561,9.258,13.451,33.238-.094,42.333a34.977,34.977,0,0,0-5.2,4.426q-46.886,46.9-93.743,93.83c-6.942,6.984-15.029,9.581-24.376,7.335-16.9-4.064-27.682-26.322-12.624-42.418,7.795-8.332,16.081-16.2,24.151-24.28q15.737-15.746,31.479-31.486C612.061,412.5,612.753,411.74,614.078,410.349Z" fill="#fff"/>
  </g>
</svg>
